# xmcd
#
# Track frame offsets:
#	150
#	12344
#	56902
#	148290
#	191433
#	238608
#
# Disc length: 3544 seconds
#
# Revision: 1
# Processed by: cddbd v1.5.2PL0 Copyright (c) Steve Scherf et al.
# Submitted via: audiograbber 1.83.01
#
DISCID=540dd606
DTITLE=Grateful Dead - 94-03-30 The Omni, Atlanta GA
DYEAR=1900
DGENRE=
TTITLE0=Tuning
TTITLE1=Scarlet Begonias
TTITLE2=Fire On The Mountain
TTITLE3=Playing In The Band
TTITLE4=Dark Star
TTITLE5=Drums
EXTD=
EXTT0=
EXTT1=
EXTT2=
EXTT3=
EXTT4=
EXTT5=
PLAYORDER=
